# xmcd
#
# Track frame offsets:
#	150
#	11465
#	28847
#	50255
#	60067
#	80795
#	89027
#	108085
#	132707
#	155035
#	163437
#	183935
#	204545
#	219900
#
# Disc length: 3134 seconds
#
# Revision: 1
# Processed by: cddbd v1.5.1PL0 Copyright (c) Steve Scherf et al.
# Submitted via: CDex 1.50Beta5
#
DISCID=c00c3c0e
DTITLE=DJ YUTAKA - UNITED NATIONSII
DYEAR=2001
DGENRE=Rock
TTITLE0=DJ YUTAKA/THEME OF UNITED NATIONS II
TTITLE1=DJ YUTAKA/BACK UP(SAGARE)
TTITLE2=DJ YUTAKA/BODY SHOTS
TTITLE3=GM YOSHI/THEME OF DJ YUTAKA
TTITLE4=DJ YUTAKA/INTERNATIONAL RYME KILLERS,THE
TTITLE5=DJ BEAT/ROCK STEADY BREAK DOWN II
TTITLE6=DJ YUTAKA/REVENGE
TTITLE7=DJ YUTAKA/OH NO
TTITLE8=DJ YUTAKA/BOUNCIN’
TTITLE9=BEAT JUNKIES/LA-JAPAN CONNECTION
TTITLE10=DJ YUTAKA/DONDI‘N’GRAND MIZZA
TTITLE11=DJ YUTAKA/GOOD FRIDAY
TTITLE12=DJ AK/CUT‘N’SLICED
TTITLE13=BEAT KNUCKLES,THE/ZULU BEATS 21
EXTD=
EXTT0=
EXTT1=
EXTT2=
EXTT3=
EXTT4=
EXTT5=
EXTT6=
EXTT7=
EXTT8=
EXTT9=
EXTT10=
EXTT11=
EXTT12=
EXTT13=
PLAYORDER=
